<svg xmlns="http://www.w3.org/2000/svg" width="126.014" height="86.109" viewBox="0 0 126.014 86.109">
  <g id="outline" transform="translate(-15.997 -88)">
    <path id="Path_57" data-name="Path 57" d="M22.3,174.109H135.71a6.308,6.308,0,0,0,6.3-6.193,6.42,6.42,0,0,0-6.444-6.409h-26.83l16.181-19.123a43.571,43.571,0,0,0,3.49-4.749c.111-.136,2.422-4.209,3.271-6.189l1.908-4.453a16.927,16.927,0,0,0,.858-10.714L132.376,108l2.671.89a2.1,2.1,0,0,0,2.149-.507l2.1-2.1a2.1,2.1,0,0,0,.614-1.486V98.5a2.1,2.1,0,0,0-1.161-1.879l-3.9-1.948-4.811-4.811a6.364,6.364,0,0,0-4.5-1.864h-.269a6.352,6.352,0,0,0-4.736,2.118,8.856,8.856,0,0,0-5.028,1.876,8.748,8.748,0,0,0-2.809,4.035l-2.086,6.009a2.1,2.1,0,0,0,.043,1.444l1.95,4.875V113.2a2.1,2.1,0,0,0,2.1,2.1h4.2v2.379l-2.049.293h0l-7.644,1.092a8.279,8.279,0,0,0-7.108,8.2v8.461l-4.617,7.7L76.838,122.768a11.144,11.144,0,0,0-16.949,1.4l-18.073,25.3-5.677,3.785-8.048,2.012a2.1,2.1,0,0,0-1.591,2.037v4.2H22.442A6.42,6.42,0,0,0,16,167.916,6.308,6.308,0,0,0,22.3,174.109Zm96.61-79.314v2.837l-1.569-1.569A4.654,4.654,0,0,1,118.908,94.794Zm-2.1,16.308v-3.15a2.1,2.1,0,0,0-.15-.78l-1.814-4.536.782-2.347,3.282,3.282V111.1Zm.768,16.087,1.269-5.076.012-.049.03-.136,2.418-.345a2.1,2.1,0,0,0,1.8-2.079V94.365a2.167,2.167,0,0,1,2.165-2.165h.269a2.149,2.149,0,0,1,1.53.633l5.052,5.052a2.1,2.1,0,0,0,.546.394l3.04,1.519v4.133l-.567.567-1.206-.4-3.974-3.9a2.1,2.1,0,0,0-3.485,2.094l3.891,15.007a12.7,12.7,0,0,1-.644,8.041l-1.908,4.453a39.405,39.405,0,0,1-2.231,4.414h-2.531a5.646,5.646,0,0,1-5.478-7.015Zm-11.569,10.2a2.1,2.1,0,0,0,.3-1.081v-9.042a4.08,4.08,0,0,1,3.5-4.038l4.594-.656-.9,3.6A9.84,9.84,0,0,0,122.74,138.4c-.336.432-.677.86-1.03,1.276l-16.176,19.118-.379-2.269a20.5,20.5,0,0,0-4.639-9.982Zm-42.7-10.774a6.944,6.944,0,0,1,10.561-.874l22.553,22.553a16.342,16.342,0,0,1,4.59,8.92l.716,4.3H90.555L70.25,133.04a2.1,2.1,0,0,0-3.548.085L60.534,143.4,49.6,154.337l-3.557-3.557Zm22,34.9H50.415l1.022-3.066,12.251-12.251a2.113,2.113,0,0,0,.315-.4l4.593-7.655ZM30.7,158.947l6.81-1.7a2.1,2.1,0,0,0,.656-.29l4.868-3.245,4.166,4.165-1.212,3.633H30.7Zm-8.4,6.761H135.71a2.1,2.1,0,0,1,0,4.2H22.3a2.1,2.1,0,0,1,0-4.2Z" transform="translate(0)" fill="#bd1718"/>
    <path id="Path_58" data-name="Path 58" d="M426.606,327.4l-2.1,2.45a2.1,2.1,0,1,0,3.189,2.733l2.1-2.45a2.1,2.1,0,0,0-3.189-2.734Z" transform="translate(-300.892 -176.01)" fill="#bd1718"/>
    <path id="Path_59" data-name="Path 59" d="M454.806,280.733l-6.3,7.351a2.1,2.1,0,0,0,3.189,2.734l6.3-7.351a2.1,2.1,0,1,0-3.189-2.734Z" transform="translate(-318.591 -141.595)" fill="#bd1718"/>
  </g>
</svg>
