<svg id="electrotherapy" xmlns="http://www.w3.org/2000/svg" width="86.109" height="86.109" viewBox="0 0 86.109 86.109">
  <path id="Path_45" data-name="Path 45" d="M2.523,96.318h7.736V78.659a2.523,2.523,0,0,1,5.045,0V96.318h7.568A2.5,2.5,0,0,0,25.4,93.8V63.523A2.5,2.5,0,0,0,22.873,61H2.523A2.5,2.5,0,0,0,0,63.523V93.8A2.5,2.5,0,0,0,2.523,96.318Zm0,0" transform="translate(0 -50.741)" fill="#bd1718"/>
  <path id="Path_46" data-name="Path 46" d="M36.045,276.045H33.523A2.522,2.522,0,0,0,31,278.568V293.7a2.522,2.522,0,0,0,2.523,2.523h2.523v12.782a2.523,2.523,0,1,0,5.045,0V296.227h2.523a2.522,2.522,0,0,0,2.523-2.523V278.568a2.522,2.522,0,0,0-2.523-2.523H41.091V271H36.045Zm0,0" transform="translate(-25.786 -225.423)" fill="#bd1718"/>
  <path id="Path_47" data-name="Path 47" d="M203.7,0H183.523A2.5,2.5,0,0,0,181,2.523V32.963a2.5,2.5,0,0,0,2.523,2.523h7.568V17.827a2.523,2.523,0,0,1,5.045,0V35.486H203.7a2.5,2.5,0,0,0,2.523-2.523V2.523A2.5,2.5,0,0,0,203.7,0Zm0,0" transform="translate(-150.559)" fill="#bd1718"/>
  <path id="Path_48" data-name="Path 48" d="M216.045,216.045h-2.523A2.522,2.522,0,0,0,211,218.568V233.7a2.522,2.522,0,0,0,2.523,2.523h2.523V259.1a2.523,2.523,0,1,0,5.045,0V236.227h2.523a2.522,2.522,0,0,0,2.523-2.523V218.568a2.522,2.522,0,0,0-2.523-2.523h-2.523V211h-5.045Zm0,0" transform="translate(-175.514 -175.514)" fill="#bd1718"/>
  <path id="Path_49" data-name="Path 49" d="M383.873,61h-20.35A2.5,2.5,0,0,0,361,63.523V93.8a2.5,2.5,0,0,0,2.523,2.523h7.568V78.659a2.523,2.523,0,0,1,5.045,0V96.318h7.736A2.5,2.5,0,0,0,386.4,93.8V63.523A2.5,2.5,0,0,0,383.873,61Zm0,0" transform="translate(-300.287 -50.741)" fill="#bd1718"/>
  <path id="Path_50" data-name="Path 50" d="M396.045,276.045h-2.523A2.522,2.522,0,0,0,391,278.568V293.7a2.522,2.522,0,0,0,2.523,2.523h2.523v12.782a2.523,2.523,0,1,0,5.045,0V296.227h2.523a2.522,2.522,0,0,0,2.523-2.523V278.568a2.522,2.522,0,0,0-2.523-2.523h-2.523V271h-5.045Zm0,0" transform="translate(-325.241 -225.423)" fill="#bd1718"/>
</svg>
