<svg id="facebook" xmlns="http://www.w3.org/2000/svg" width="29.45" height="29.45" viewBox="0 0 29.45 29.45">
  <g id="Group_12" data-name="Group 12">
    <g id="Group_11" data-name="Group 11">
      <path id="Path_15" data-name="Path 15" d="M210.793,153.949v1.339h-1.339V157.3h1.339v6.024h2.677V157.3h1.78l.228-2.008H213.47v-1.171c0-.542.054-.83.89-.83h1.118v-2.015h-1.794C211.542,151.272,210.793,152.276,210.793,153.949Z" transform="translate(-197.406 -142.571)" fill="#bd1718"/>
      <path id="Path_16" data-name="Path 16" d="M14.725,0A14.725,14.725,0,1,0,29.45,14.725,14.725,14.725,0,0,0,14.725,0Zm0,28.112A13.387,13.387,0,1,1,28.112,14.725,13.386,13.386,0,0,1,14.725,28.112Z" fill="#bd1718"/>
    </g>
  </g>
</svg>
