<svg id="instagram" xmlns="http://www.w3.org/2000/svg" width="29.451" height="29.45" viewBox="0 0 29.451 29.45">
  <path id="Path_17" data-name="Path 17" d="M21.478,0H7.971A7.981,7.981,0,0,0,0,7.972V21.479A7.981,7.981,0,0,0,7.971,29.45H21.478a7.981,7.981,0,0,0,7.972-7.972V7.972A7.981,7.981,0,0,0,21.478,0Zm6.245,21.479a6.252,6.252,0,0,1-6.245,6.245H7.971a6.252,6.252,0,0,1-6.245-6.245V7.972A6.252,6.252,0,0,1,7.971,1.727H21.478a6.252,6.252,0,0,1,6.245,6.245Zm0,0" transform="translate(0.001 0)" fill="#bd1718"/>
  <path id="Path_18" data-name="Path 18" d="M124.057,116a8.053,8.053,0,1,0,8.053,8.053A8.062,8.062,0,0,0,124.057,116Zm0,14.379a6.326,6.326,0,1,1,6.326-6.326A6.333,6.333,0,0,1,124.057,130.383Zm0,0" transform="translate(-109.331 -109.331)" fill="#bd1718"/>
  <path id="Path_19" data-name="Path 19" d="M360.356,66.285a2.38,2.38,0,1,0,2.38,2.379A2.382,2.382,0,0,0,360.356,66.285Zm0,3.032a.653.653,0,1,1,.653-.653A.654.654,0,0,1,360.356,69.318Zm0,0" transform="translate(-337.386 -62.472)" fill="#bd1718"/>
</svg>
