<svg xmlns="http://www.w3.org/2000/svg" width="104.73" height="86.6" viewBox="0 0 104.73 86.6">
  <g id="laser" transform="translate(0 -44.317)">
    <path id="Path_51" data-name="Path 51" d="M241.332,415.987c-6.063-2.859-12.461-5.976-18.164-9.4a1.534,1.534,0,0,0-1.579,2.631c5.82,3.494,12.3,6.652,18.435,9.545a1.534,1.534,0,0,0,1.308-2.775Z" transform="translate(-175.67 -287.992)" fill="#bd1718"/>
    <path id="Path_52" data-name="Path 52" d="M42.075,248.928c-11.328-7.934-17.3-16.667-18.784-27.481-.669-4.866-5.369-8.677-10.931-8.865-.441-.015-.075-.005-10.825-.008a1.534,1.534,0,0,0,0,3.068c10.894,0,10.372-.005,10.722.006,3.526.119,7.481,2.476,8,6.216a37,37,0,0,0,6.84,17.027,54.461,54.461,0,0,0,13.223,12.55,1.534,1.534,0,0,0,1.76-2.513Z" transform="translate(0 -133.839)" fill="#bd1718"/>
    <path id="Path_53" data-name="Path 53" d="M104.432,89.1a1.534,1.534,0,0,0-2.145-.327L93.4,95.315A10.957,10.957,0,0,1,78.967,78.933L91.775,65.481a12.533,12.533,0,0,0-.617-17.889,12.563,12.563,0,0,0-17.131.2l-5,4.793a2.791,2.791,0,0,0-3.945,0l-2.273,2.273a3.991,3.991,0,0,0-3.355,1.13l-2.32,2.32-.025-.025a1.534,1.534,0,1,0-2.17,2.17l.025.025-1.158,1.158-.025-.025a1.534,1.534,0,0,0-2.17,2.17l.025.025-8.412,8.412-3.131-4.548a27,27,0,0,0-22.24-11.689H1.534a1.534,1.534,0,1,0,0,3.068H17.852A23.931,23.931,0,0,1,37.565,69.408l3.452,5.013-2.83,2.83a4,4,0,0,0,0,5.654l.343.343-4.38,4.38A1.534,1.534,0,0,0,36.32,89.8l4.38-4.38.344.344a4,4,0,0,0,5.654,0L47.959,84.5l23.7,34.427a1.534,1.534,0,0,0,2.527-1.74L50.165,82.3l2.918-2.918a1.534,1.534,0,1,0-2.169-2.17l-6.385,6.385a.931.931,0,0,1-1.315,0l-2.857-2.857a.931.931,0,0,1,0-1.315L53.805,65.973l4.172,4.172-2.682,2.682A1.534,1.534,0,0,0,57.464,75l2.682-2.682.025.025a1.534,1.534,0,1,0,2.17-2.17l-.025-.025,1.158-1.158.025.025a1.534,1.534,0,0,0,2.17-2.17l-.025-.025,2.32-2.32a3.99,3.99,0,0,0,1.13-3.355c1.672-1.895,3.09-2.456,3.09-4.246a2.957,2.957,0,0,0-.988-2.144l4.954-4.748a9.465,9.465,0,0,1,13.4,13.359L76.745,76.817a14.027,14.027,0,0,0,18.468,20.97l8.892-6.54a1.535,1.535,0,0,0,.327-2.145ZM67.053,54.95,69,56.9l-1.492,1.492-1.947-1.947ZM60.147,67.975,55.975,63.8l1.158-1.158L61.3,66.818Zm-.844-7.5,1.291-1.291.026.029,4.117,4.117.029.026-1.291,1.291Z" transform="translate(0)" fill="#bd1718"/>
  </g>
</svg>
