<svg xmlns="http://www.w3.org/2000/svg" width="117.209" height="86.6" viewBox="0 0 117.209 86.6">
  <g id="Layer_22" data-name="Layer 22" transform="translate(0 -6.234)">
    <path id="Path_54" data-name="Path 54" d="M115.132,76.476c-.327.027-32.986,2.608-52.817-1.747-2.637-.581-4.318.217-8.386,2.147-2.959,1.4-7.437,3.523-14.917,6.441C22.292,89.836,13.3,90.195,11.8,87.66c-1.408-2.389,1.779-12.931,5.541-21.351a1.83,1.83,0,1,0-3.34-1.5c-.244.542-.651,1.479-1.134,2.647-4.3-2.977-9.2-7.424-9.2-10.093.281-1.205,4.472-4.836,9.271-8.115a4.755,4.755,0,0,1,.173.732,18.574,18.574,0,0,1-.425,2.391,11.618,11.618,0,0,0-.446,5.482c.556,1.676,2.293,2.267,3.562,2.7.181.061.417.142.6.21.488,1.086,1.508,2.862,2.223,4.06.112.451.354,1.366.688,2.31a4.621,4.621,0,0,0,3.052,2.9,4.533,4.533,0,0,0,4.092-.771c.488-.383,1.125-.91,1.827-1.52L27.013,72.5a1.827,1.827,0,0,0,1.769,2.3,1.73,1.73,0,0,0,.542-.083,55.925,55.925,0,0,0,12.86-6.2c8.932-5.909,10.369-12.2,10.425-12.472a1.828,1.828,0,0,0-3.572-.783,11.269,11.269,0,0,1-1.354,2.852l-7.349.686a1.832,1.832,0,1,0,.168,3.66h.171l3.721-.346a29.332,29.332,0,0,1-4.231,3.364,52.43,52.43,0,0,1-8.708,4.567l1.84-6.907a29.631,29.631,0,0,0,6.187-7.307,11.189,11.189,0,0,0-.644-6.414,1.83,1.83,0,0,0-3.352,1.464,7.766,7.766,0,0,1,.459,3.977A86.206,86.206,0,0,1,24.205,66.39a.9.9,0,0,1-.815.156.961.961,0,0,1-.634-.6,22.338,22.338,0,0,1-.642-2.2,1.9,1.9,0,0,0-.215-.532c-.976-1.708-1.527-2.8-2.213-4.006a4.455,4.455,0,0,0-2.713-2.086,8.185,8.185,0,0,1-1.276-.512,21.681,21.681,0,0,1,.561-3.44,13.3,13.3,0,0,0,.488-3.474,29.778,29.778,0,0,0-1.8-5.773c-.651-1.8-1.483-4.1-2.5-7.034-.107-.315-.181-.632-.261-.949,3.384,1.849,8.615,1.793,14.065,1.3,5.812-.52,14.092-.947,18.882,1.33a1.83,1.83,0,0,0,1.571-3.306C42.384,33.213,35.97,32.691,25.923,33.6c-12.28,1.1-13.6-1.447-13.853-3.926-.359-3.482,4.06-8.1,5.792-9.581a1.815,1.815,0,0,0,.571-.9,9.418,9.418,0,0,1,4.989-5.572,17.781,17.781,0,0,1,6.4-1.493,13.848,13.848,0,0,0,8.637,5.685c9.252,2.413,10.628,4.775,10.83,5.441a9.166,9.166,0,0,1,.3,3.343,27.045,27.045,0,0,0-3.66-1.33A54.273,54.273,0,0,0,36.9,23.654c-2.213-.281-4.809-.605-8-1.113a21.294,21.294,0,0,1-7.036-2.225,1.828,1.828,0,0,0-1.82,3.172,24.434,24.434,0,0,0,8.278,2.664c3.238.517,5.87.849,8.117,1.132a52.163,52.163,0,0,1,8.442,1.483c4.287,1.3,5.956,2.479,6.151,4.357a7.254,7.254,0,0,1-2.886,5.856,1.832,1.832,0,0,0,.2,3.1l4.082,2.2a1.845,1.845,0,0,0,.869.22,1.951,1.951,0,0,0,.266-.02l5.124-.756a1.83,1.83,0,1,0-.534-3.621l-4.518.666-1.359-.732a9.835,9.835,0,0,0,2.4-7.3,6.465,6.465,0,0,0-1.737-3.777,13.819,13.819,0,0,0-.144-6.778c-.976-3.23-5.368-5.821-13.419-7.92a11.387,11.387,0,0,1-5.8-3.208,13.5,13.5,0,0,1,7.449-.959,5.987,5.987,0,0,1,5.394,4.567,1.83,1.83,0,0,0,3.55-.886,9.623,9.623,0,0,0-8.21-7.266A18.015,18.015,0,0,0,30.471,8.459a20.833,20.833,0,0,0-8.5,1.8,13.092,13.092,0,0,0-6.875,7.4c-1.657,1.5-7.219,6.975-6.666,12.365.015.144.049.268.071.407a1.427,1.427,0,0,0-.093.227,14.661,14.661,0,0,0,.581,7.4c1.017,2.959,1.857,5.28,2.515,7.09.066.185.122.342.188.52C7.075,48.713,0,53.942,0,57.294c0,5.443,7.946,11.321,11.484,13.663-2.325,6.195-4.958,14.975-2.84,18.567,1.361,2.306,4.231,3.218,7.927,3.218,6.6,0,15.842-2.928,23.771-6.009,7.6-2.964,12.148-5.124,15.156-6.544,3.809-1.81,4.66-2.181,6.031-1.881,20.375,4.477,52.543,1.93,53.9,1.818a1.829,1.829,0,0,0-.3-3.645Z" transform="translate(0 0.092)" fill="#bd1718"/>
    <path id="Path_55" data-name="Path 55" d="M23.728,55.168a3.14,3.14,0,0,0,2.808,1.4,6.329,6.329,0,0,0,1.552-.215,31.881,31.881,0,0,0,9.3-4.926,3.833,3.833,0,0,0,6.295,2.032c7.024-6.322,7.214-7.124,7.368-7.763.212-.893.412-1.9.581-2.806l13.419.293h.041a1.83,1.83,0,0,0,.039-3.66l-11.6-.244L83.151,9.447a1.83,1.83,0,1,0-2.6-2.564L48.984,38.653a1.854,1.854,0,0,0-.51,1.01c0,.029-.439,2.842-.93,4.958a66.766,66.766,0,0,1-6.314,6.117l-.244-.229,4.072-5.4a1.83,1.83,0,0,0-2.637-2.5l-5,4.194a36.526,36.526,0,0,1-10.259,6.007c-.107.027-.2.046-.285.063a18.318,18.318,0,0,1,3.772-6.653,31.427,31.427,0,0,1,11.14-7.407,1.82,1.82,0,0,0,.83-.634L62.994,9.964a1.83,1.83,0,0,0-2.967-2.145L39.974,35.6a33.552,33.552,0,0,0-12.162,8.317C26.348,45.756,21.681,51.989,23.728,55.168Z" transform="translate(33.427 0)" fill="#bd1718"/>
    <path id="Path_56" data-name="Path 56" d="M68.508,16.939,53.171,31.2l-3.706-.425A11.116,11.116,0,0,0,42.146,32.5c-10.362,6.778-10.82,9.064-10.44,10.672a6.026,6.026,0,0,0,4.538,4.516,20.28,20.28,0,0,0,4.006.307c1.5,0,3.006-.081,4.023-.159a22.227,22.227,0,0,0,14.248-5.692l12.158-7.061a1.833,1.833,0,0,0-1.84-3.172l-12.382,7.2a2.013,2.013,0,0,0-.466.383c-.142.166-3.628,4.023-12.006,4.689a31.546,31.546,0,0,1-6.922-.068A2.369,2.369,0,0,1,35.356,42.6c.322-.532,1.862-2.5,8.8-7.036a7.41,7.41,0,0,1,4.909-1.152l4.54.52a1.879,1.879,0,0,0,1.464-.488L71.021,19.608a1.832,1.832,0,1,0-2.493-2.684Z" transform="translate(45.526 14.686)" fill="#bd1718"/>
  </g>
</svg>
