<svg id="physical-therapy" xmlns="http://www.w3.org/2000/svg" width="89.542" height="86.6" viewBox="0 0 89.542 86.6">
  <path id="Path_1" data-name="Path 1" d="M87.388,72.93H82.076a8.658,8.658,0,0,0,2.8-4.81,11.711,11.711,0,0,0,.022-4.195A15.126,15.126,0,0,1,85,58.432h0c.376-1.678.1-2.937-.813-3.742-1.108-.975-2.919-1.016-5.381-.122a6.168,6.168,0,0,0-2.073,1.258A9.854,9.854,0,0,0,64.866,59.77a20.352,20.352,0,0,0-6.2-2.7,1.312,1.312,0,1,0-.663,2.538,17.4,17.4,0,0,1,5.652,2.516c-.041.11-.08.22-.117.332a9.484,9.484,0,0,0-.455,3.935,10.85,10.85,0,0,0,3.023,6.541H53.274V68.851h3.487a1.312,1.312,0,0,0,0-2.623h-15.1v-4.9a4.865,4.865,0,0,0,.5-.254,19.852,19.852,0,0,1,10.01-2.24h.022a1.312,1.312,0,0,0,.021-2.623,27.068,27.068,0,0,0-4.391.282V49.52a11.064,11.064,0,0,0,3.112-3.426,9.841,9.841,0,0,0,1.395-5.531c.015-.346.03-.725.053-1.147,0-.012,0-.023,0-.035s0-.023,0-.034V36.128a6.927,6.927,0,0,0-6.919-6.919H45a10.485,10.485,0,0,0,3.243-6.878V19.639a11.445,11.445,0,0,0-3.131-8.308,9.978,9.978,0,0,0-6.954-2.919H38.12a9.986,9.986,0,0,0-6.956,2.918,11.441,11.441,0,0,0-3.134,8.309v2.692a10.483,10.483,0,0,0,3.245,6.878h-.461a6.77,6.77,0,0,0-6.04,3.643l-7.637,12.4c-.864-1.551-3.005-4.887-5.537-5.081a2.537,2.537,0,0,0-2.178.621,2.391,2.391,0,0,0-.351,2.175l1.845,10.523a3.253,3.253,0,0,0,.909,2.171,2.8,2.8,0,0,0,2.248.353c.176-.019.375-.04.6-.061a14.853,14.853,0,0,1,7.42,1.193,22.121,22.121,0,0,1,2.942,1.637v7.03H14.36c-1.543,0-1.584-.088-1.783-.507-.257-.544-2.6-5.322-5.8-5.566a2.534,2.534,0,0,0-2.182.622,2.368,2.368,0,0,0-.345,2.187L6.071,72.93H2.15A2.152,2.152,0,0,0,0,75.08V85.362a2.154,2.154,0,0,0,2.15,2.154H5.419v2.436a5.065,5.065,0,0,0,5.059,5.06H79.059a5.065,5.065,0,0,0,5.059-5.06V87.516h3.269a2.157,2.157,0,0,0,2.154-2.154V75.08a2.154,2.154,0,0,0-2.154-2.15Zm-9.2-7.8c-1.055-2.293-1.266-4.443-.594-6.054a3.573,3.573,0,0,1,2.11-2.045,6.692,6.692,0,0,1,2.185-.485,1,1,0,0,1,.568.111c.045.04.175.359-.014,1.2h0a17.783,17.783,0,0,0-.152,6.369,9.651,9.651,0,0,1,.032,3.287c-.744,3.13-2.557,4.638-6.831,5.176l.034-.029C79.149,69.529,78.971,66.837,78.184,65.132Zm-12.489.979a6.842,6.842,0,0,1,.337-2.832,7.889,7.889,0,0,1,6.336-5.436,7.494,7.494,0,0,1,2.8.232c-.955,2.294-.73,5.19.635,8.156,1.284,2.78-3.6,5.737-5.152,6.588a7.871,7.871,0,0,1-4.955-6.707ZM50.65,68.851V72.93H39.234a2.044,2.044,0,0,1,.2-4.079ZM45.2,57.031a17.837,17.837,0,0,0-4.363,1.776l-.07.041c-.146-.172-.335-.415-.51-.639-.213-.274-.479-.614-.8-1.005A27.917,27.917,0,0,0,36.8,54.467l7.224-2.915c.377-.153.77-.321,1.171-.508v5.986ZM33.806,52.847A1.627,1.627,0,0,1,32.6,49.825l.035-.015,6.626-2.871,1.558,3.079ZM38.14,11.036c3.264.061,6.745,2.289,7.38,7.02-2.866-.546-8.711-1.717-9.391-1.893h0a4.225,4.225,0,0,0-1.06-.141,4.868,4.868,0,0,0-2.862,1.128A7.283,7.283,0,0,1,30.763,18a7.581,7.581,0,0,1,7.377-6.959Zm-7.488,11.3V20.768A8.311,8.311,0,0,0,33.7,19.3c.86-.6,1.137-.764,1.767-.6h0c.471.122,7.273,1.513,10.151,2.043v1.586c0,2.254-2.152,5.558-5.118,6.97a1.33,1.33,0,0,0-.121.055c-.163.074-.327.144-.494.206a4.986,4.986,0,0,1-1.75.361,5.051,5.051,0,0,1-1.749-.359c-.159-.059-.318-.127-.476-.2a1.333,1.333,0,0,0-.13-.061c-2.756-1.323-5.133-4.487-5.133-6.974Zm10.514,9.546v.393a3.27,3.27,0,0,1-3.026,3.463,3.272,3.272,0,0,1-3.031-3.463v-.394q.186.078.374.148a7.024,7.024,0,0,0,5.315,0Q40.983,31.955,41.167,31.878Zm-14.16,2.351c1.049-1.7,2.152-2.4,3.806-2.4h1.673v.438a5.889,5.889,0,0,0,5.654,6.086,5.886,5.886,0,0,0,5.649-6.086v-.438h1.673a4.3,4.3,0,0,1,4.3,4.3v3.184c-.022.417-.038.795-.052,1.14-.087,2.084-.114,2.713-1.047,4.331-1.061,1.84-2.686,3.118-5.4,4.247l-1.6-3.161a5.868,5.868,0,0,0,1.659-1.3,1.3,1.3,0,0,0,.172-.224l1.581-2.6a1.312,1.312,0,1,0-2.242-1.362l-1.506,2.479a3.62,3.62,0,0,1-1.484.97L31.607,47.4a4.206,4.206,0,0,0-1.821,1.421,16.856,16.856,0,0,0-3.738-1.472L28.718,43a1.312,1.312,0,1,0-2.234-1.374l-3.162,5.14c-1.267-.2-2.539-.332-3.772-.43ZM18.4,53.422a17.826,17.826,0,0,0-3.962-.078c-.239.022-.789.081-.863.088-.027-.141-1.853-10.557-1.853-10.557,1.036.441,2.6,2.481,3.454,4.279a2.513,2.513,0,0,0,1.7,1.633c.816.105,1.411.088,1.68.106.347.025.7.052,1.053.082Zm9.262,7.45a10.286,10.286,0,0,1,3.056,4.495,9.8,9.8,0,0,1-3.056.4Zm-11,7.568h8.261c5.091,0,6.844-.3,7.812-1.34a2.355,2.355,0,0,0,.615-1.826c-.166-2.421-3.505-7.434-10.148-10.506a15.53,15.53,0,0,0-2.224-.813l1.273-4.693a17.521,17.521,0,0,1,6.71,2.106A4.249,4.249,0,0,0,34,55.511a27.585,27.585,0,0,1,3.423,3.354c.3.366.543.68.759.957a10.935,10.935,0,0,0,.854,1.011v5.413a4.665,4.665,0,0,0-3.811,6.685H16.653ZM10.2,66.431c.884,1.863,2.41,2,3.825,2.008V72.93h-5.3L6.9,62.436C7.942,62.845,9.41,64.747,10.2,66.431ZM86.919,84.893H47.9a1.312,1.312,0,0,0,0,2.623H81.5v2.436a2.439,2.439,0,0,1-2.436,2.436H10.478a2.439,2.439,0,0,1-2.436-2.436V87.516H42.131a1.312,1.312,0,0,0,0-2.623H2.623V75.554h84.3Z" transform="translate(0 -8.413)" fill="#bd1718"/>
</svg>
