<svg xmlns="http://www.w3.org/2000/svg" width="86.109" height="86.108" viewBox="0 0 86.109 86.108">
  <g id="recovery" transform="translate(-2 -2)">
    <path id="Path_60" data-name="Path 60" d="M21.435,45.833h7.176v7.176a1.435,1.435,0,0,0,1.435,1.435H44.4a1.435,1.435,0,0,0,1.435-1.435V45.833h7.176A1.435,1.435,0,0,0,54.443,44.4V30.046a1.435,1.435,0,0,0-1.435-1.435H45.833V21.435A1.435,1.435,0,0,0,44.4,20H30.046a1.435,1.435,0,0,0-1.435,1.435v7.176H21.435A1.435,1.435,0,0,0,20,30.046V44.4A1.435,1.435,0,0,0,21.435,45.833ZM22.87,31.481h7.176a1.435,1.435,0,0,0,1.435-1.435V22.87H42.962v7.176A1.435,1.435,0,0,0,44.4,31.481h7.176V42.962H44.4A1.435,1.435,0,0,0,42.962,44.4v7.176H31.481V44.4a1.435,1.435,0,0,0-1.435-1.435H22.87Z" transform="translate(7.833 7.833)" fill="#bd1718"/>
    <path id="Path_61" data-name="Path 61" d="M13,40.268A27.268,27.268,0,1,0,40.268,13,27.3,27.3,0,0,0,13,40.268Zm27.268-24.4a24.4,24.4,0,1,1-24.4,24.4A24.425,24.425,0,0,1,40.268,15.87Z" transform="translate(4.787 4.787)" fill="#bd1718"/>
    <path id="Path_62" data-name="Path 62" d="M35.214,5.178l-.329,2.85a35.907,35.907,0,0,1,21.748,10.8L58.7,16.844A38.769,38.769,0,0,0,35.214,5.178Z" transform="translate(14.31 1.383)" fill="#bd1718"/>
    <path id="Path_63" data-name="Path 63" d="M33.832,7.9l.109-2.867c-.987-.039-1.992-.039-2.979,0L31.071,7.9C31.987,7.862,32.917,7.862,33.832,7.9Z" transform="translate(12.603 1.305)" fill="#bd1718"/>
    <path id="Path_64" data-name="Path 64" d="M7.87,43.671A35.843,35.843,0,0,1,39.607,8.028l-.329-2.85a38.752,38.752,0,0,0,0,76.987l.329-2.85A35.843,35.843,0,0,1,7.87,43.671Z" transform="translate(1.305 1.383)" fill="#bd1718"/>
    <path id="Path_65" data-name="Path 65" d="M31.071,56.982l-.109,2.867c.494.02.99.029,1.49.029s1-.009,1.49-.029l-.109-2.867c-.916.034-1.846.034-2.761,0Z" transform="translate(12.603 23.925)" fill="#bd1718"/>
    <path id="Path_66" data-name="Path 66" d="M69.288,26.681a1.493,1.493,0,0,0-2.461,0l-4.305,7.176a1.435,1.435,0,0,0,1.231,2.174h2.8A35.814,35.814,0,0,1,34.885,70.24l.329,2.85A38.7,38.7,0,0,0,69.46,36.031h2.9a1.435,1.435,0,0,0,1.23-2.174Zm-3,6.48,1.771-2.952,1.771,2.952Z" transform="translate(14.31 10.458)" fill="#bd1718"/>
    <path id="Path_67" data-name="Path 67" d="M15.3,57.792c-3.332-.921-3.819-1.406-4.739-4.74a1.436,1.436,0,0,0-2.767,0c-.92,3.332-1.406,3.819-4.739,4.74a1.435,1.435,0,0,0,0,2.767c3.332.921,3.819,1.406,4.739,4.74a1.436,1.436,0,0,0,2.767,0c.92-3.332,1.406-3.819,4.739-4.74a1.435,1.435,0,0,0,0-2.767ZM9.176,61.039a5.652,5.652,0,0,0-1.863-1.863,5.652,5.652,0,0,0,1.863-1.863,5.652,5.652,0,0,0,1.863,1.863,5.651,5.651,0,0,0-1.863,1.863Z" transform="translate(0 21.757)" fill="#bd1718"/>
    <path id="Path_68" data-name="Path 68" d="M65.3,7.792c-3.332-.921-3.819-1.406-4.739-4.74a1.436,1.436,0,0,0-2.767,0c-.92,3.332-1.406,3.819-4.739,4.74a1.435,1.435,0,0,0,0,2.767c3.332.921,3.819,1.406,4.739,4.74a1.436,1.436,0,0,0,2.767,0c.92-3.332,1.406-3.819,4.739-4.74a1.435,1.435,0,0,0,0-2.767Zm-6.122,3.246a5.652,5.652,0,0,0-1.863-1.863,5.652,5.652,0,0,0,1.863-1.863,5.651,5.651,0,0,0,1.863,1.863A5.652,5.652,0,0,0,59.176,11.039Z" transform="translate(21.757)" fill="#bd1718"/>
  </g>
</svg>
