<svg xmlns="http://www.w3.org/2000/svg" width="79.443" height="86.6" viewBox="0 0 79.443 86.6">
  <g id="ultrasound" transform="translate(-21.156)">
    <path id="Path_41" data-name="Path 41" d="M0,0H10.148V5.074H0Z" transform="translate(47.99 49.011) rotate(-45)" fill="#bd1718"/>
    <path id="Path_42" data-name="Path 42" d="M372.933,65.645a4.636,4.636,0,0,1,4.624,4.625l5.074,0a9.717,9.717,0,0,0-9.694-9.694Z" transform="translate(-292.277 -50.326)" fill="#bd1718"/>
    <path id="Path_43" data-name="Path 43" d="M387.728,19.959H392.8A20.036,20.036,0,0,0,372.844,0V5.074A14.9,14.9,0,0,1,387.728,19.959Z" transform="translate(-292.203)" fill="#bd1718"/>
    <path id="Path_44" data-name="Path 44" d="M21.755,113.093a7.494,7.494,0,0,0,7.032,4.7h71.474v-5.074H28.787a2.537,2.537,0,0,1-1.794-4.331l2.738-2.738A12.683,12.683,0,0,0,45.7,104.034L64.145,85.587c1.311-1.311,4.1-1.186,7.062-1.053,3.742.168,7.985.358,10.878-2.535L94.25,69.834l-1.019-1.7A86.529,86.529,0,0,0,63.656,38.561l-1.7-1.019L49.793,49.707c-2.828,2.826-2.712,6.923-2.535,10.878.133,2.958.258,5.751-1.053,7.062L27.757,86.094a12.683,12.683,0,0,0-1.615,15.967L23.4,104.8a7.493,7.493,0,0,0-1.65,8.295ZM62.726,43.949A81.49,81.49,0,0,1,87.842,69.065l-3.686,3.686A76.2,76.2,0,0,0,59.04,47.635ZM31.345,89.682,49.793,71.235c2.892-2.892,2.7-7.135,2.535-10.878-.094-2.1-.367-5.643,1.053-7.063l1.962-1.962A70.673,70.673,0,0,1,80.459,76.448L78.5,78.41c-1.311,1.311-4.1,1.186-7.063,1.054C67.691,79.3,63.449,79.106,60.556,82L42.109,100.446A7.611,7.611,0,0,1,31.345,89.682Z" transform="translate(0 -31.192)" fill="#bd1718"/>
  </g>
</svg>
